<svg xmlns="http://www.w3.org/2000/svg" xmlns:xlink="http://www.w3.org/1999/xlink" version="1.1" x="0px" y="0px" viewBox="0 0 100 125" enable-background="new 0 0 100 100" xml:space="preserve"><g><path d="M62.448,5H15v90h69.231V26.783L62.448,5z M63.462,10.909l14.86,14.86h-14.86V10.909z M18.462,91.538V8.462H60v20.769   h20.769v62.308H18.462z"/><rect x="28.846" y="77.692" width="41.538" height="1.731"/><rect x="28.846" y="56.923" width="17.308" height="1.731"/><rect x="28.846" y="50" width="41.538" height="1.731"/><rect x="28.846" y="43.077" width="41.538" height="1.731"/><rect x="28.846" y="36.154" width="41.538" height="1.731"/><rect x="28.846" y="29.231" width="24.231" height="1.731"/><rect x="28.846" y="63.846" width="17.308" height="1.731"/><rect x="28.846" y="70.769" width="17.308" height="1.731"/><path d="M68.149,58.442l-2.745-2.745c-0.673-0.673-1.775-0.673-2.448,0l-9.88,9.88L51.346,72.5l6.923-1.731l9.88-9.88   C68.822,60.216,68.822,59.115,68.149,58.442z M64.792,58.932l-8.027,8.027c-0.169,0.169-0.39,0.253-0.612,0.253   s-0.443-0.085-0.612-0.253c-0.338-0.338-0.338-0.886,0-1.224l8.027-8.027c0.338-0.338,0.886-0.338,1.224,0   C65.13,58.046,65.13,58.594,64.792,58.932z"/></g><text x="0" y="115" fill="#000000" font-size="5px" font-weight="bold" font-family="'Helvetica Neue', Helvetica, Arial-Unicode, Arial, Sans-serif">Created by Jamison Wieser</text><text x="0" y="120" fill="#000000" font-size="5px" font-weight="bold" font-family="'Helvetica Neue', Helvetica, Arial-Unicode, Arial, Sans-serif">from the Noun Project</text></svg>