<svg xmlns="http://www.w3.org/2000/svg" viewBox="0 0 64 80" x="0px" y="0px"><title>Mountain-landscape-rock-hiking-hill</title><g><g data-name="13-Mountain"><path d="M49,28.414l2.293,2.293a1,1,0,0,0,1.414,0L55,28.414l6.293,6.293,1.414-1.414-13-13a1,1,0,0,0-1.414,0L43,25.586,32.707,15.293a1,1,0,0,0-1.414,0L21,25.586l-5.293-5.293a1,1,0,0,0-1.414,0l-13,13,1.414,1.414L9,28.414l2.293,2.293a1,1,0,0,0,1.414,0L15,28.414,16.586,30,1.293,45.293l1.414,1.414,16-16L21,28.414l2.293,2.293a1,1,0,0,0,1.414,0L28,27.414l3.293,3.293a1,1,0,0,0,1.414,0L36,27.414l3.293,3.293a1,1,0,0,0,1.414,0L43,28.414l2.293,2.293,16,16,1.414-1.414L47.414,30Zm-31,.172-2.293-2.293a1,1,0,0,0-1.414,0L12,28.586,10.414,27,15,22.414,19.586,27Zm22,0-3.293-3.293a1,1,0,0,0-1.414,0L32,28.586l-3.293-3.293a1,1,0,0,0-1.414,0L24,28.586,22.414,27,32,17.414,41.586,27ZM44.414,27,49,22.414,53.586,27,52,28.586l-2.293-2.293a1,1,0,0,0-1.414,0L46,28.586Z"/><path d="M47,15H57a5,5,0,0,0,.2-10A6,6,0,0,0,46.066,7.11,4,4,0,0,0,47,15Zm0-6a1,1,0,0,0,1-1,4,4,0,0,1,7.671-1.585,1.014,1.014,0,0,0,1.008.6C56.783,7.009,56.9,7,57,7a3,3,0,0,1,0,6H47a2,2,0,0,1,0-4Z"/><path d="M7,15H17a4,4,0,0,0,.934-7.89A6,6,0,0,0,6.8,5,5,5,0,0,0,7,15ZM7,7c.1,0,.217.009.41.02a1,1,0,0,0,.919-.6A4,4,0,0,1,16,8a1,1,0,0,0,1,1,2,2,0,0,1,0,4H7A3,3,0,0,1,7,7Z"/><path d="M58.327,59.007A7,7,0,0,0,56.333,50.5a5,5,0,1,0-8.654,0,6.989,6.989,0,0,0-.584.514,6.948,6.948,0,0,0-1.064-.869,4,4,0,1,0-7.669,0,6.934,6.934,0,0,0-1.272,1.07,6.928,6.928,0,0,0-.767-.715,5,5,0,1,0-8.655,0,7.025,7.025,0,0,0-.67.608,6.859,6.859,0,0,0-1.164-.963,4,4,0,1,0-7.668,0A6.932,6.932,0,0,0,17,51.107a6.885,6.885,0,0,0-.669-.607,5,5,0,1,0-8.654,0,7,7,0,0,0-1.994,8.507A10.975,10.975,0,0,0,3.212,61.4l1.6,1.2a8.954,8.954,0,0,1,2.714-2.394,1,1,0,0,0,.331-1.429A4.935,4.935,0,0,1,7.006,56a5,5,0,0,1,2.583-4.375,1,1,0,0,0,.244-1.562,3,3,0,1,1,4.346,0,1,1,0,0,0,.244,1.562A5,5,0,0,1,17.006,56a4.943,4.943,0,0,1-.848,2.779,1,1,0,0,0,.33,1.429A8.961,8.961,0,0,1,19.2,62.6l1.6-1.2a10.974,10.974,0,0,0-2.471-2.388,6.962,6.962,0,0,0-.124-6.245,4.978,4.978,0,0,1,1.673-1.287,1,1,0,0,0,.415-1.447A1.892,1.892,0,0,1,20,49a2,2,0,0,1,4,0,1.892,1.892,0,0,1-.291,1.028,1,1,0,0,0,.415,1.447A4.988,4.988,0,0,1,25.8,52.763a6.96,6.96,0,0,0-.124,6.244A10.955,10.955,0,0,0,23.2,61.4l1.6,1.2a8.973,8.973,0,0,1,2.715-2.394,1,1,0,0,0,.331-1.429A4.935,4.935,0,0,1,27,56a5,5,0,0,1,2.583-4.375,1,1,0,0,0,.244-1.562,3,3,0,1,1,4.346,0,1,1,0,0,0,.244,1.562A5,5,0,0,1,37,56a4.931,4.931,0,0,1-.848,2.779,1,1,0,0,0,.33,1.429A8.922,8.922,0,0,1,39.191,62.6l1.6-1.2a10.92,10.92,0,0,0-2.472-2.389,6.985,6.985,0,0,0-.043-6.1,4.982,4.982,0,0,1,1.8-1.431,1,1,0,0,0,.415-1.447A1.892,1.892,0,0,1,40.2,49a2,2,0,0,1,4,0,1.892,1.892,0,0,1-.29,1.028,1,1,0,0,0,.414,1.447,4.965,4.965,0,0,1,1.558,1.164,6.953,6.953,0,0,0-.193,6.368A10.975,10.975,0,0,0,43.212,61.4l1.6,1.2a8.954,8.954,0,0,1,2.714-2.394,1,1,0,0,0,.331-1.429A4.935,4.935,0,0,1,47.006,56a5,5,0,0,1,2.583-4.375,1,1,0,0,0,.244-1.562,3,3,0,1,1,4.346,0,1,1,0,0,0,.244,1.562A5,5,0,0,1,57.006,56a4.943,4.943,0,0,1-.848,2.779,1,1,0,0,0,.33,1.429A8.961,8.961,0,0,1,59.2,62.6l1.6-1.2A10.974,10.974,0,0,0,58.327,59.007Z"/><polygon points="51.006 55.586 49.713 54.293 48.299 55.707 51.006 58.414 51.006 62 53.006 62 53.006 48 51.006 48 51.006 55.586"/><polygon points="30.996 55.586 29.703 54.293 28.289 55.707 30.996 58.414 30.996 62 32.996 62 32.996 48 30.996 48 30.996 55.586"/><polygon points="11.006 55.586 9.713 54.293 8.299 55.707 11.006 58.414 11.006 62 13.006 62 13.006 48 11.006 48 11.006 55.586"/><rect x="21" y="52" width="2" height="10"/><rect x="41.196" y="52" width="2" height="10"/></g></g><text x="0" y="79" fill="#000000" font-size="5px" font-weight="bold" font-family="'Helvetica Neue', Helvetica, Arial-Unicode, Arial, Sans-serif">Created by Chaowalit  Koetchuea</text><text x="0" y="84" fill="#000000" font-size="5px" font-weight="bold" font-family="'Helvetica Neue', Helvetica, Arial-Unicode, Arial, Sans-serif">from the Noun Project</text></svg>