<svg xmlns="http://www.w3.org/2000/svg" viewBox="0 0 64 80" x="0px" y="0px"><title>University</title><g><path d="M20,42.67969V32.48724A2.4915,2.4915,0,0,0,18.5,28h-5A2.4915,2.4915,0,0,0,12,32.48724V42.67969L8.03174,48.23486A5.544,5.544,0,0,0,12.54,57H19.46a5.544,5.544,0,0,0,4.5083-8.76514ZM13.5,30h5a.5.5,0,0,1,0,1h-5a.5.5,0,0,1,0-1Zm5.96,25H12.54a3.54382,3.54382,0,0,1-2.88037-5.603L13.814,43.58105A.999.999,0,0,0,14,43V33h4V43a.999.999,0,0,0,.186.581L22.34033,49.397A3.54382,3.54382,0,0,1,19.46,55Z"/><path d="M56,40a1,1,0,0,0-1,1v2H54V41.48724A2.4915,2.4915,0,0,0,52.5,37h-3A2.4915,2.4915,0,0,0,48,41.48724V43H45V41.48724A2.4915,2.4915,0,0,0,43.5,37h-3A2.4915,2.4915,0,0,0,39,41.48724V43H36V41.48724A2.4915,2.4915,0,0,0,34.5,37h-3A2.4915,2.4915,0,0,0,30,41.48724V43H29V42a1,1,0,0,0-2,0V56a1,1,0,0,0,2,0V55H55v1a1,1,0,0,0,2,0V41A1,1,0,0,0,56,40Zm-6.5-1h3a.5.5,0,0,1,0,1h-3a.5.5,0,0,1,0-1ZM52,42v7a1,1,0,0,1-2,0V42ZM40.5,39h3a.5.5,0,0,1,0,1h-3a.5.5,0,0,1,0-1ZM43,42v7a1,1,0,0,1-2,0V42ZM31.5,39h3a.5.5,0,0,1,0,1h-3a.5.5,0,0,1,0-1ZM34,42v7a1,1,0,0,1-2,0V42ZM55,53H29V45h1v4a3,3,0,0,0,6,0V45h3v4a3,3,0,0,0,6,0V45h3v4a3,3,0,0,0,6,0V45h1Z"/><path d="M28.60547,31.37225A3.82816,3.82816,0,0,0,32.62061,35C35.02112,35,38.04413,33.43469,41,31.089,43.95593,33.43475,46.97882,35,49.37939,35a3.82816,3.82816,0,0,0,4.01514-3.62775,12.43187,12.43187,0,0,0-1.11029-5.84881C55.10205,24.467,57,22.95074,57,20.99927s-1.898-3.46778-4.71576-4.52417a12.43193,12.43193,0,0,0,1.11029-5.84882,4.04343,4.04343,0,0,0-1.5249-2.8659C49.35352,5.89978,45.11169,7.64844,41,10.91156,36.88763,7.648,32.6449,5.89905,30.13037,7.76038a4.04343,4.04343,0,0,0-1.5249,2.8659,12.43193,12.43193,0,0,0,1.11029,5.84882C26.898,17.53149,25,19.04779,25,20.99927s1.898,3.46777,4.71576,4.52417A12.43187,12.43187,0,0,0,28.60547,31.37225Zm2.71533,1.26032a2.092,2.092,0,0,1-.73-1.50269,10.84316,10.84316,0,0,1,1.03058-4.99682,32.75177,32.75177,0,0,0,5.05743.91937c.88672.96173,1.8161,1.88061,2.7674,2.73022C35.81531,32.577,32.65338,33.61957,31.3208,32.63257Zm17.41-13.46588q-.69342-.98319-1.473-1.96082,1.2312.20463,2.285.47486C49.29675,18.16376,49.02856,18.6582,48.73083,19.16669Zm.81208,5.15112q-1.05175.26871-2.285.47485.779-.97632,1.473-1.96081C49.02856,23.34033,49.29675,23.83478,49.54291,24.31781ZM47.5777,20.99927c-.67536,1.00012-1.44544,2.03351-2.31647,3.08783-.30218.36578-.60632.71533-.91071,1.05987-1.05334.08466-2.16766.13452-3.35052.13452s-2.29706-.04992-3.35034-.13452c-.30445-.3446-.60871-.69409-.91089-1.05987-.871-1.05432-1.64111-2.08771-2.31647-3.08783.67536-1.00012,1.44544-2.03351,2.31647-3.08783q.45072-.54556.905-1.05933c1.05505-.0849,2.17114-.13507,3.3562-.13507s2.30115.05017,3.35614.13507q.454.51406.90509,1.05933C46.13226,18.96576,46.90234,19.99915,47.5777,20.99927ZM33.26917,19.16669c-.29773-.50849-.56592-1.00293-.81208-1.486q1.05175-.26871,2.285-.47486Q33.96311,18.18219,33.26917,19.16669Zm0,3.66516q.69342.98318,1.473,1.96081-1.2312-.20462-2.285-.47485C32.70325,23.83478,32.97144,23.34033,33.26917,22.83185Zm7.73132,5.67724c-.44476-.39093-.89386-.81408-1.34424-1.25354.44836.01459.89691.02369,1.34375.02369.447,0,.89575-.0091,1.3443-.02369C41.894,27.695,41.44513,28.11816,41.00049,28.50909Zm10.40869,2.62079a2.092,2.092,0,0,1-.73,1.50269c-1.33222.98535-4.49408-.057-8.12482-2.85047.95111-.84942,1.88031-1.76818,2.76679-2.72967a32.75045,32.75045,0,0,0,5.05743-.91937A10.84316,10.84316,0,0,1,51.40918,31.12988ZM55,20.99927c0,.86462-1.25543,1.89258-3.52264,2.72558-.44135-.89111-.95618-1.80444-1.52924-2.72558.57306-.92114,1.08789-1.83448,1.52924-2.72559C53.74457,19.10669,55,20.13464,55,20.99927ZM49.37012,9.00067a2.16129,2.16129,0,0,1,1.30908.3653,2.092,2.092,0,0,1,.73,1.50268,10.8432,10.8432,0,0,1-1.03058,4.99683,32.756,32.756,0,0,0-5.06311-.91986c-.886-.96076-1.81146-1.88263-2.7619-2.73145C45.28381,10.1131,47.74945,9.00067,49.37012,9.00067Zm-8.37024,4.49317q.66915.58813,1.34747,1.2492C41.89777,14.72839,41.448,14.7193,41,14.7193s-.89789.00909-1.34753.02374Q40.33014,14.08166,40.99988,13.49384ZM30.59082,10.86865a2.092,2.092,0,0,1,.73-1.50268,2.16129,2.16129,0,0,1,1.30908-.3653c1.62067,0,4.08618,1.11261,6.81641,3.21362-.95032.84876-1.87567,1.77063-2.76166,2.73133a32.75779,32.75779,0,0,0-5.06323.91986A10.8432,10.8432,0,0,1,30.59082,10.86865ZM27,20.99927c0-.86463,1.25543-1.89258,3.52264-2.72559.44135.89111.95618,1.80445,1.52924,2.72559-.57306.92114-1.08789,1.83447-1.52924,2.72558C28.25543,22.89185,27,21.86389,27,20.99927Z"/><path d="M41,17.83636a3.163,3.163,0,1,0,3.14307,3.16291A3.15666,3.15666,0,0,0,41,17.83636Zm0,4.32807a1.16537,1.16537,0,1,1,1.14307-1.16516A1.15562,1.15562,0,0,1,41,22.16443Z"/></g><text x="0" y="79" fill="#000000" font-size="5px" font-weight="bold" font-family="'Helvetica Neue', Helvetica, Arial-Unicode, Arial, Sans-serif">Created by Berkah Icon</text><text x="0" y="84" fill="#000000" font-size="5px" font-weight="bold" font-family="'Helvetica Neue', Helvetica, Arial-Unicode, Arial, Sans-serif">from the Noun Project</text></svg>