<svg xmlns="http://www.w3.org/2000/svg" xmlns:xlink="http://www.w3.org/1999/xlink" version="1.1" x="0px" y="0px" viewBox="0 0 100 125" enable-background="new 0 0 100 100" xml:space="preserve"><path d="M83.5,32.876h-3.644v-5.884c0-1.104-0.896-2-2-2c-11.453,0-21.937,1.964-27.856,5.169  c-5.92-3.206-16.404-5.169-27.856-5.169c-1.104,0-2,0.896-2,2v5.884H16.5c-1.104,0-2,0.896-2,2v38.131c0,1.104,0.896,2,2,2h67  c1.104,0,2-0.896,2-2V34.876C85.5,33.772,84.604,32.876,83.5,32.876z M75.856,65.547c-9.48,0.19-18.137,1.727-23.856,4.185V33.624  c4.956-2.654,13.996-4.4,23.856-4.61V65.547z M24.144,29.014c9.86,0.209,18.9,1.956,23.856,4.61v36.107  c-5.72-2.458-14.375-3.994-23.856-4.185V29.014z M18.5,36.876h1.644v30.651c0,1.104,0.896,2,2,2c5.789,0,11.369,0.537,16.109,1.48  H18.5V36.876z M81.5,71.008H61.748c4.74-0.943,10.319-1.48,16.108-1.48c1.104,0,2-0.896,2-2V36.876H81.5V71.008z"/><text x="0" y="115" fill="#000000" font-size="5px" font-weight="bold" font-family="'Helvetica Neue', Helvetica, Arial-Unicode, Arial, Sans-serif">Created by Sergey Demushkin</text><text x="0" y="120" fill="#000000" font-size="5px" font-weight="bold" font-family="'Helvetica Neue', Helvetica, Arial-Unicode, Arial, Sans-serif">from the Noun Project</text></svg>